<?xml version="1.0" encoding="UTF-8"?>
<svg version="1.1" xmlns="http://www.w3.org/2000/svg" width="32" height="32">
<path d="M0 0 C5.28 0 10.56 0 16 0 C20.27565605 4.27565605 20.79787459 5.23942584 21 11 C20.3530635 12.6744239 19.69040574 14.34302621 19 16 C19.66 16.99 20.32 17.98 21 19 C21.63114754 24.59016393 21.63114754 24.59016393 21 27 C19.35 28.65 17.7 30.3 16 32 C10.72 32 5.44 32 0 32 C0 21.44 0 10.88 0 0 Z M6 5 C6 7.64 6 10.28 6 13 C9.41656024 13.16677282 9.41656024 13.16677282 13 13 C13.66 12.34 14.32 11.68 15 11 C14.71016731 7.69316534 14.71016731 7.69316534 13 5 C10.66702567 4.95907063 8.33294775 4.95758277 6 5 Z M6 18 C6 20.97 6 23.94 6 27 C10.00254456 27.09181134 10.00254456 27.09181134 14 27 C15.32745166 25.88741409 15.32745166 25.88741409 15.25 23.0625 C15.1675 22.051875 15.085 21.04125 15 20 C11.5647952 17.70986347 10.014669 17.82157027 6 18 Z " fill="#046AA6" transform="translate(6,0)"/>
</svg>
